<svg height="510" width="720" xmlns="http://www.w3.org/2000/svg">
<rect height="510" fill="#555" width="720"></rect>
<text fill="#7f7" font-family="Courier New" font-size="12" xml:space="preserve">
<tspan x="10" y="26">12 megabytes installed</tspan>
<tspan x="10" y="42"></tspan>
<tspan x="10" y="58">node_modules</tspan>
<tspan x="10" y="74">└─┬ n_@1.4.4 </tspan>
<tspan x="10" y="90">  ├── lodash@4.17.4 </tspan>
<tspan x="10" y="106">  ├── os-homedir@1.0.2 </tspan>
<tspan x="10" y="122">  ├── repl.history@0.1.4 </tspan>
<tspan x="10" y="138">  └─┬ tar.gz@1.0.5 </tspan>
<tspan x="10" y="154">    ├── bluebird@2.11.0 </tspan>
<tspan x="10" y="170">    ├─┬ commander@2.9.0 </tspan>
<tspan x="10" y="186">    │ └── graceful-readlink@1.0.1 </tspan>
<tspan x="10" y="202">    ├─┬ fstream@1.0.11 </tspan>
<tspan x="10" y="218">    │ ├── graceful-fs@4.1.11 </tspan>
<tspan x="10" y="234">    │ ├── inherits@2.0.3 </tspan>
<tspan x="10" y="250">    │ ├─┬ mkdirp@0.5.1 </tspan>
<tspan x="10" y="266">    │ │ └── minimist@0.0.8 </tspan>
<tspan x="10" y="282">    │ └─┬ rimraf@2.6.1 </tspan>
<tspan x="10" y="298">    │   └─┬ glob@7.1.1 </tspan>
<tspan x="10" y="314">    │     ├── fs.realpath@1.0.0 </tspan>
<tspan x="10" y="330">    │     ├─┬ inflight@1.0.6 </tspan>
<tspan x="10" y="346">    │     │ └── wrappy@1.0.2 </tspan>
<tspan x="10" y="362">    │     ├─┬ minimatch@3.0.3 </tspan>
<tspan x="10" y="378">    │     │ └─┬ brace-expansion@1.1.7 </tspan>
<tspan x="10" y="394">    │     │   ├── balanced-match@0.4.2 </tspan>
<tspan x="10" y="410">    │     │   └── concat-map@0.0.1 </tspan>
<tspan x="10" y="426">    │     ├── once@1.4.0 </tspan>
<tspan x="10" y="442">    │     └── path-is-absolute@1.0.1 </tspan>
<tspan x="10" y="458">    ├── mout@0.11.1 </tspan>
<tspan x="10" y="474">    └─┬ tar@2.2.1 </tspan>
<tspan x="10" y="490">      └── block-stream@0.0.9</tspan>
</text>
</svg>
